<svg xmlns="http://www.w3.org/2000/svg" viewBox="0 0 640 420" fill="none">
  <rect width="640" height="420" rx="24" fill="#E8F2FF"/>
  <rect x="32" y="32" width="576" height="48" rx="12" fill="#fff"/>
  <rect x="32" y="100" width="180" height="288" rx="12" fill="#fff"/>
  <rect x="228" y="100" width="380" height="120" rx="12" fill="#fff"/>
  <rect x="228" y="236" width="380" height="152" rx="12" fill="#fff"/>
  <rect x="48" y="48" width="120" height="16" rx="4" fill="#0068FF"/>
  <rect x="48" y="120" width="140" height="12" rx="4" fill="#CBD5E1"/>
  <rect x="48" y="140" width="100" height="12" rx="4" fill="#CBD5E1"/>
  <rect x="48" y="180" width="148" height="8" rx="4" fill="#E2E8F0"/>
  <rect x="48" y="200" width="148" height="8" rx="4" fill="#E2E8F0"/>
  <rect x="48" y="220" width="120" height="8" rx="4" fill="#E2E8F0"/>
  <rect x="244" y="120" width="80" height="24" rx="6" fill="#00B894"/>
  <rect x="332" y="120" width="80" height="24" rx="6" fill="#0068FF"/>
  <rect x="420" y="120" width="80" height="24" rx="6" fill="#F59E0B"/>
  <rect x="244" y="256" width="340" height="12" rx="4" fill="#E2E8F0"/>
  <rect x="244" y="276" width="300" height="12" rx="4" fill="#E2E8F0"/>
  <rect x="244" y="296" width="320" height="12" rx="4" fill="#E2E8F0"/>
  <rect x="244" y="332" width="120" height="36" rx="8" fill="#0068FF"/>
</svg>
